<svg width="20" height="20" viewBox="0 0 20 20" fill="none" xmlns="http://www.w3.org/2000/svg">
<path d="M14.7917 3.27917V2.1875C14.7917 2.02174 14.7258 1.86277 14.6086 1.74556C14.4914 1.62835 14.3324 1.5625 14.1667 1.5625C14.0009 1.5625 13.8419 1.62835 13.7247 1.74556C13.6075 1.86277 13.5417 2.02174 13.5417 2.1875V3.22917H6.45833V2.1875C6.45833 2.02174 6.39249 1.86277 6.27528 1.74556C6.15806 1.62835 5.99909 1.5625 5.83333 1.5625C5.66757 1.5625 5.5086 1.62835 5.39139 1.74556C5.27418 1.86277 5.20833 2.02174 5.20833 2.1875V3.27917C4.27944 3.4294 3.4342 3.90496 2.82359 4.6209C2.21298 5.33684 1.87677 6.24654 1.875 7.1875V14.4792C1.875 14.999 1.97739 15.5137 2.17631 15.994C2.37524 16.4742 2.6668 16.9106 3.03437 17.2781C3.7767 18.0205 4.78352 18.4375 5.83333 18.4375H14.1667C14.6865 18.4375 15.2012 18.3351 15.6815 18.1362C16.1617 17.9373 16.5981 17.6457 16.9656 17.2781C17.3332 16.9106 17.6248 16.4742 17.8237 15.994C18.0226 15.5137 18.125 14.999 18.125 14.4792V7.1875C18.1232 6.24654 17.787 5.33684 17.1764 4.6209C16.5658 3.90496 15.7206 3.4294 14.7917 3.27917ZM7 14.9458H6.16667C6.00091 14.9458 5.84194 14.88 5.72472 14.7628C5.60751 14.6456 5.54167 14.4866 5.54167 14.3208C5.54167 14.1551 5.60751 13.9961 5.72472 13.8789C5.84194 13.7617 6.00091 13.6958 6.16667 13.6958H7C7.16576 13.6958 7.32473 13.7617 7.44194 13.8789C7.55915 13.9961 7.625 14.1551 7.625 14.3208C7.625 14.4866 7.55915 14.6456 7.44194 14.7628C7.32473 14.88 7.16576 14.9458 7 14.9458ZM7 12.3792H6.16667C6.00091 12.3792 5.84194 12.3133 5.72472 12.1961C5.60751 12.0789 5.54167 11.9199 5.54167 11.7542C5.54167 11.5884 5.60751 11.4294 5.72472 11.3122C5.84194 11.195 6.00091 11.1292 6.16667 11.1292H7C7.16576 11.1292 7.32473 11.195 7.44194 11.3122C7.55915 11.4294 7.625 11.5884 7.625 11.7542C7.625 11.9199 7.55915 12.0789 7.44194 12.1961C7.32473 12.3133 7.16576 12.3792 7 12.3792ZM10.425 14.9458H9.59167C9.42591 14.9458 9.26693 14.88 9.14972 14.7628C9.03251 14.6456 8.96667 14.4866 8.96667 14.3208C8.96667 14.1551 9.03251 13.9961 9.14972 13.8789C9.26693 13.7617 9.42591 13.6958 9.59167 13.6958H10.425C10.5908 13.6958 10.7497 13.7617 10.8669 13.8789C10.9842 13.9961 11.05 14.1551 11.05 14.3208C11.05 14.4866 10.9842 14.6456 10.8669 14.7628C10.7497 14.88 10.5908 14.9458 10.425 14.9458ZM10.425 12.3792H9.59167C9.42591 12.3792 9.26693 12.3133 9.14972 12.1961C9.03251 12.0789 8.96667 11.9199 8.96667 11.7542C8.96667 11.5884 9.03251 11.4294 9.14972 11.3122C9.26693 11.195 9.42591 11.1292 9.59167 11.1292H10.425C10.5908 11.1292 10.7497 11.195 10.8669 11.3122C10.9842 11.4294 11.05 11.5884 11.05 11.7542C11.05 11.9199 10.9842 12.0789 10.8669 12.1961C10.7497 12.3133 10.5908 12.3792 10.425 12.3792ZM13.85 14.9458H13.0167C12.8509 14.9458 12.6919 14.88 12.5747 14.7628C12.4575 14.6456 12.3917 14.4866 12.3917 14.3208C12.3917 14.1551 12.4575 13.9961 12.5747 13.8789C12.6919 13.7617 12.8509 13.6958 13.0167 13.6958H13.85C14.0158 13.6958 14.1747 13.7617 14.2919 13.8789C14.4092 13.9961 14.475 14.1551 14.475 14.3208C14.475 14.4866 14.4092 14.6456 14.2919 14.7628C14.1747 14.88 14.0158 14.9458 13.85 14.9458ZM13.85 12.3792H13.0167C12.8509 12.3792 12.6919 12.3133 12.5747 12.1961C12.4575 12.0789 12.3917 11.9199 12.3917 11.7542C12.3917 11.5884 12.4575 11.4294 12.5747 11.3122C12.6919 11.195 12.8509 11.1292 13.0167 11.1292H13.85C14.0158 11.1292 14.1747 11.195 14.2919 11.3122C14.4092 11.4294 14.475 11.5884 14.475 11.7542C14.475 11.9199 14.4092 12.0789 14.2919 12.1961C14.1747 12.3133 14.0158 12.3792 13.85 12.3792ZM16.875 8.2125H3.125V7.17083C3.12582 6.56258 3.33199 5.97243 3.71012 5.49599C4.08824 5.01956 4.61616 4.68475 5.20833 4.54583V5.50417C5.20833 5.66993 5.27418 5.8289 5.39139 5.94611C5.5086 6.06332 5.66757 6.12917 5.83333 6.12917C5.99909 6.12917 6.15806 6.06332 6.27528 5.94611C6.39249 5.8289 6.45833 5.66993 6.45833 5.50417V4.4625H13.5417V5.50417C13.5417 5.66993 13.6075 5.8289 13.7247 5.94611C13.8419 6.06332 14.0009 6.12917 14.1667 6.12917C14.3324 6.12917 14.4914 6.06332 14.6086 5.94611C14.7258 5.8289 14.7917 5.66993 14.7917 5.50417V4.54583C15.3838 4.68475 15.9118 5.01956 16.2899 5.49599C16.668 5.97243 16.8742 6.56258 16.875 7.17083V8.2125Z" fill="#2BA3A3"/>
</svg>
