<svg width="9" height="11" viewBox="0 0 9 11" fill="none" xmlns="http://www.w3.org/2000/svg">
    <path fill-rule="evenodd" clip-rule="evenodd" d="M4.09706 10.4272C4.11198 10.4358 4.1237 10.4425 4.13201 10.4471L4.1458 10.4548C4.25586 10.5153 4.3924 10.5148 4.50257 10.455L4.51672 10.4471C4.52503 10.4425 4.53675 10.4358 4.55167 10.4272C4.5815 10.4099 4.62413 10.3847 4.67772 10.3517C4.78487 10.2857 4.93614 10.1884 5.11682 10.0607C5.47758 9.80589 5.95893 9.42777 6.44133 8.93386C7.40146 7.95082 8.39873 6.47384 8.39873 4.57436C8.39873 2.32416 6.57457 0.5 4.32437 0.5C2.07416 0.5 0.25 2.32416 0.25 4.57436C0.25 6.47384 1.24727 7.95082 2.2074 8.93386C2.68981 9.42777 3.17115 9.80589 3.53191 10.0607C3.71259 10.1884 3.86386 10.2857 3.97101 10.3517C4.0246 10.3847 4.06723 10.4099 4.09706 10.4272ZM4.32437 6.05595C5.14262 6.05595 5.80595 5.39262 5.80595 4.57437C5.80595 3.75611 5.14262 3.09278 4.32437 3.09278C3.50611 3.09278 2.84278 3.75611 2.84278 4.57437C2.84278 5.39262 3.50611 6.05595 4.32437 6.05595Z" fill="#838282"/>
    </svg>
    