<svg width="85" height="83" viewBox="0 0 85 83" fill="none" xmlns="http://www.w3.org/2000/svg">
    <path
        d="M69.7492 71.6352C63.5107 63.4018 53.6265 58.0833 42.5 58.0833C31.3735 58.0833 21.4893 63.4018 15.2508 71.6352M69.7492 71.6352C78.1859 64.1256 83.5 53.1834 83.5 41C83.5 18.3563 65.1437 0 42.5 0C19.8563 0 1.5 18.3563 1.5 41C1.5 53.1834 6.81406 64.1256 15.2508 71.6352M69.7492 71.6352C62.5057 78.0828 52.9603 82 42.5 82C32.0397 82 22.4943 78.0828 15.2508 71.6352M56.1667 30.75C56.1667 38.2979 50.0479 44.4167 42.5 44.4167C34.9521 44.4167 28.8333 38.2979 28.8333 30.75C28.8333 23.2021 34.9521 17.0833 42.5 17.0833C50.0479 17.0833 56.1667 23.2021 56.1667 30.75Z"
        stroke="#0F172A" stroke-width="1.5" stroke-linecap="round" stroke-linejoin="round" />
</svg>
    